<svg width="67" height="59" viewBox="0 0 67 59" fill="none" xmlns="http://www.w3.org/2000/svg">
<g clip-path="url(#clip0_145:367)">
<g clip-path="url(#clip1_145:367)">
<path d="M33.0273 5.49995C40.2048 5.49995 46.4748 10.615 47.8773 17.6825L48.7023 21.8075L52.8823 22.11C57.1723 22.4125 60.5273 25.9874 60.5273 30.2499C60.5273 34.7874 56.8148 38.4999 52.2773 38.4999H16.5273C10.4498 38.4999 5.52734 33.5774 5.52734 27.4999C5.52734 21.8625 9.73484 17.16 15.3173 16.5825L18.2598 16.28L19.6348 13.6675C22.2198 8.63495 27.3623 5.49995 33.0273 5.49995ZM33.0273 -4.57764e-05C25.0798 -4.57764e-05 18.1498 4.50995 14.7123 11.11C6.46234 11.99 0.0273438 19.0025 0.0273438 27.4999C0.0273438 36.6024 7.42484 43.9999 16.5273 43.9999H52.2773C59.8673 43.9999 66.0273 37.8399 66.0273 30.2499C66.0273 22.9899 60.3898 17.105 53.2673 16.61C51.3698 7.12245 43.0373 -4.57764e-05 33.0273 -4.57764e-05Z" fill="white"/>
</g>
<path d="M28 44L28 49.5" stroke="white" stroke-width="5" stroke-linecap="round"/>
<path d="M35 51L35 56.5" stroke="white" stroke-width="5" stroke-linecap="round"/>
<path d="M10 42L10 47.5" stroke="white" stroke-width="5" stroke-linecap="round"/>
<path d="M55 45L55 50.5" stroke="white" stroke-width="5" stroke-linecap="round"/>
<path d="M24.75 51.875H22.1437L24.1687 49.85L23.2875 48.9625L20.375 51.875H19.125V50.625L22.0375 47.7125L21.15 46.8313L19.125 48.8563V46.25H17.875V48.8563L15.85 46.8313L14.9625 47.7125L17.875 50.625V51.875H16.625L13.7125 48.9625L12.8313 49.85L14.8563 51.875H12.25V53.125H14.8563L12.8313 55.15L13.7125 56.0375L16.625 53.125H17.875V54.375L14.9625 57.2875L15.85 58.1687L17.875 56.1437V58.75H19.125V56.1437L21.15 58.1687L22.0375 57.2875L19.125 54.375V53.125H20.375L23.2875 56.0375L24.1687 55.15L22.1437 53.125H24.75V51.875Z" fill="white"/>
<path d="M51.75 50.875H49.1437L51.1687 48.85L50.2875 47.9625L47.375 50.875H46.125V49.625L49.0375 46.7125L48.15 45.8313L46.125 47.8563V45.25H44.875V47.8563L42.85 45.8313L41.9625 46.7125L44.875 49.625V50.875H43.625L40.7125 47.9625L39.8313 48.85L41.8563 50.875H39.25V52.125H41.8563L39.8313 54.15L40.7125 55.0375L43.625 52.125H44.875V53.375L41.9625 56.2875L42.85 57.1687L44.875 55.1437V57.75H46.125V55.1437L48.15 57.1687L49.0375 56.2875L46.125 53.375V52.125H47.375L50.2875 55.0375L51.1687 54.15L49.1437 52.125H51.75V50.875Z" fill="white"/>
</g>
<defs>
<clipPath id="clip0_145:367">
<rect width="67" height="59" fill="white"/>
</clipPath>
<clipPath id="clip1_145:367">
<rect width="66" height="66" fill="white" transform="translate(0 -11)"/>
</clipPath>
</defs>
</svg>
