<svg width="34" height="35" viewBox="0 0 34 35" fill="none" xmlns="http://www.w3.org/2000/svg">
<path d="M29.4168 16.2083H24.0306L28.2156 12.0233L26.3943 10.1892L20.3752 16.2083H17.7918V13.625L23.811 7.60583L21.9768 5.78458L17.7918 9.96958V4.58333H15.2085V9.96958L11.0235 5.78458L9.18933 7.60583L15.2085 13.625V16.2083H12.6252L6.606 10.1892L4.78475 12.0233L8.96975 16.2083H3.5835V18.7917H8.96975L4.78475 22.9767L6.606 24.8108L12.6252 18.7917H15.2085V21.375L9.18933 27.3942L11.0235 29.2154L15.2085 25.0304V30.4167H17.7918V25.0304L21.9768 29.2154L23.811 27.3942L17.7918 21.375V18.7917H20.3752L26.3943 24.8108L28.2156 22.9767L24.0306 18.7917H29.4168V16.2083Z" fill="white"/>
</svg>
