<svg width="67" height="59" viewBox="0 0 67 59" fill="none" xmlns="http://www.w3.org/2000/svg">
<g clip-path="url(#clip0_145:338)">
<g clip-path="url(#clip1_145:338)">
<path d="M33.0276 5.49995C40.2051 5.49995 46.4751 10.615 47.8776 17.6825L48.7026 21.8075L52.8826 22.11C57.1726 22.4125 60.5276 25.9874 60.5276 30.2499C60.5276 34.7874 56.8151 38.4999 52.2776 38.4999H16.5276C10.4501 38.4999 5.52759 33.5774 5.52759 27.4999C5.52759 21.8625 9.73509 17.16 15.3176 16.5825L18.2601 16.28L19.6351 13.6675C22.2201 8.63495 27.3626 5.49995 33.0276 5.49995ZM33.0276 -4.57764e-05C25.0801 -4.57764e-05 18.1501 4.50995 14.7126 11.11C6.46259 11.99 0.0275879 19.0025 0.0275879 27.4999C0.0275879 36.6024 7.42509 43.9999 16.5276 43.9999H52.2776C59.8676 43.9999 66.0276 37.8399 66.0276 30.2499C66.0276 22.9899 60.3901 17.105 53.2676 16.61C51.3701 7.12245 43.0376 -4.57764e-05 33.0276 -4.57764e-05Z" fill="white"/>
</g>
<path d="M43 47L43 52.5" stroke="white" stroke-width="5" stroke-linecap="round"/>
<path d="M27.75 51.875H25.1437L27.1687 49.85L26.2875 48.9625L23.375 51.875H22.125V50.625L25.0375 47.7125L24.15 46.8313L22.125 48.8563V46.25H20.875V48.8563L18.85 46.8313L17.9625 47.7125L20.875 50.625V51.875H19.625L16.7125 48.9625L15.8313 49.85L17.8563 51.875H15.25V53.125H17.8563L15.8313 55.15L16.7125 56.0375L19.625 53.125H20.875V54.375L17.9625 57.2875L18.85 58.1687L20.875 56.1437V58.75H22.125V56.1437L24.15 58.1687L25.0375 57.2875L22.125 54.375V53.125H23.375L26.2875 56.0375L27.1687 55.15L25.1437 53.125H27.75V51.875Z" fill="white"/>
</g>
<defs>
<clipPath id="clip0_145:338">
<rect width="67" height="59" fill="white"/>
</clipPath>
<clipPath id="clip1_145:338">
<rect width="66" height="66" fill="white" transform="translate(0 -11)"/>
</clipPath>
</defs>
</svg>
