<svg width="67" height="59" viewBox="0 0 67 59" fill="none" xmlns="http://www.w3.org/2000/svg">
<g clip-path="url(#clip0_146:432)">
<path d="M40.6668 27.3333H33.7168L39.1168 21.9333L36.7668 19.5667L29.0002 27.3333H25.6668V24L33.4335 16.2333L31.0668 13.8833L25.6668 19.2833V12.3333H22.3335V19.2833L16.9335 13.8833L14.5668 16.2333L22.3335 24V27.3333H19.0002L11.2335 19.5667L8.8835 21.9333L14.2835 27.3333H7.3335V30.6667H14.2835L8.8835 36.0667L11.2335 38.4333L19.0002 30.6667H22.3335V34L14.5668 41.7667L16.9335 44.1167L22.3335 38.7167V45.6667H25.6668V38.7167L31.0668 44.1167L33.4335 41.7667L25.6668 34V30.6667H29.0002L36.7668 38.4333L39.1168 36.0667L33.7168 30.6667H40.6668V27.3333Z" fill="white"/>
<path d="M47.75 51.875H45.1437L47.1687 49.85L46.2875 48.9625L43.375 51.875H42.125V50.625L45.0375 47.7125L44.15 46.8313L42.125 48.8563V46.25H40.875V48.8563L38.85 46.8313L37.9625 47.7125L40.875 50.625V51.875H39.625L36.7125 48.9625L35.8313 49.85L37.8563 51.875H35.25V53.125H37.8563L35.8313 55.15L36.7125 56.0375L39.625 53.125H40.875V54.375L37.9625 57.2875L38.85 58.1687L40.875 56.1437V58.75H42.125V56.1437L44.15 58.1687L45.0375 57.2875L42.125 54.375V53.125H43.375L46.2875 56.0375L47.1687 55.15L45.1437 53.125H47.75V51.875Z" fill="white"/>
<path d="M12.75 5.875H10.1437L12.1687 3.85L11.2875 2.9625L8.375 5.875H7.125V4.625L10.0375 1.7125L9.15 0.83125L7.125 2.85625V0.25H5.875V2.85625L3.85 0.83125L2.9625 1.7125L5.875 4.625V5.875H4.625L1.7125 2.9625L0.83125 3.85L2.85625 5.875H0.25V7.125H2.85625L0.83125 9.15L1.7125 10.0375L4.625 7.125H5.875V8.375L2.9625 11.2875L3.85 12.1687L5.875 10.1437V12.75H7.125V10.1437L9.15 12.1687L10.0375 11.2875L7.125 8.375V7.125H8.375L11.2875 10.0375L12.1687 9.15L10.1437 7.125H12.75V5.875Z" fill="white"/>
</g>
<defs>
<clipPath id="clip0_146:432">
<rect width="67" height="59" fill="white"/>
</clipPath>
</defs>
</svg>
