<svg width="67" height="59" viewBox="0 0 67 59" fill="none" xmlns="http://www.w3.org/2000/svg">
<g clip-path="url(#clip0_148:465)">
<path d="M15.2172 21.1356C14.7872 22.7 14.5722 24.3378 14.5722 26C14.5722 35.9733 22.5033 44.0889 32.25 44.0889C33.8744 44.0889 35.475 43.8689 37.0039 43.4289C34.5194 49.6867 28.4994 54.1111 21.5 54.1111C12.2789 54.1111 4.77778 46.4356 4.77778 37C4.77778 29.8378 9.10167 23.6778 15.2172 21.1356ZM21.5 15C9.62722 15 0 24.8511 0 37C0 49.1489 9.62722 59 21.5 59C33.3728 59 43 49.1489 43 37C43 35.8756 42.9044 34.7511 42.7611 33.6756C40.42 37.0244 36.5978 39.2 32.25 39.2C25.1311 39.2 19.35 33.2844 19.35 26C19.35 21.5756 21.4761 17.64 24.7489 15.2444C23.6978 15.0978 22.5989 15 21.5 15Z" fill="white"/>
<mask id="mask0_148:465" style="mask-type:alpha" maskUnits="userSpaceOnUse" x="27" y="0" width="41" height="21">
<rect x="27" width="41" height="21" fill="#C4C4C4"/>
</mask>
<g mask="url(#mask0_148:465)">
<path d="M47.5001 13.8939C50.0626 13.8939 52.1592 16.0417 52.1592 18.6667C52.1592 21.2917 50.0626 23.4394 47.5001 23.4394C44.9376 23.4394 42.841 21.2917 42.841 18.6667C42.841 16.0417 44.9376 13.8939 47.5001 13.8939ZM47.5001 10.7121C43.2137 10.7121 39.7349 14.2758 39.7349 18.6667C39.7349 23.0576 43.2137 26.6212 47.5001 26.6212C51.7864 26.6212 55.2652 23.0576 55.2652 18.6667C55.2652 14.2758 51.7864 10.7121 47.5001 10.7121ZM31.9698 20.2576H35.0758C35.93 20.2576 36.6289 19.5417 36.6289 18.6667C36.6289 17.7917 35.93 17.0758 35.0758 17.0758H31.9698C31.1156 17.0758 30.4167 17.7917 30.4167 18.6667C30.4167 19.5417 31.1156 20.2576 31.9698 20.2576ZM59.9243 20.2576H63.0304C63.8846 20.2576 64.5834 19.5417 64.5834 18.6667C64.5834 17.7917 63.8846 17.0758 63.0304 17.0758H59.9243C59.0702 17.0758 58.3713 17.7917 58.3713 18.6667C58.3713 19.5417 59.0702 20.2576 59.9243 20.2576ZM45.9471 2.75758V5.93939C45.9471 6.81439 46.6459 7.5303 47.5001 7.5303C48.3542 7.5303 49.0531 6.81439 49.0531 5.93939V2.75758C49.0531 1.88258 48.3542 1.16667 47.5001 1.16667C46.6459 1.16667 45.9471 1.88258 45.9471 2.75758ZM45.9471 31.3939V34.5758C45.9471 35.4508 46.6459 36.1667 47.5001 36.1667C48.3542 36.1667 49.0531 35.4508 49.0531 34.5758V31.3939C49.0531 30.5189 48.3542 29.803 47.5001 29.803C46.6459 29.803 45.9471 30.5189 45.9471 31.3939ZM38.1664 6.86212C37.5607 6.24167 36.5667 6.24167 35.9766 6.86212C35.3709 7.48258 35.3709 8.50076 35.9766 9.1053L37.6228 10.7917C38.2285 11.4121 39.2224 11.4121 39.8126 10.7917C40.4027 10.1712 40.4183 9.15303 39.8126 8.54848L38.1664 6.86212ZM57.3774 26.5417C56.7717 25.9212 55.7777 25.9212 55.1876 26.5417C54.5819 27.1621 54.5819 28.1803 55.1876 28.7848L56.8338 30.4712C57.4395 31.0917 58.4334 31.0917 59.0236 30.4712C59.6292 29.8508 59.6292 28.8326 59.0236 28.228L57.3774 26.5417ZM59.0236 9.1053C59.6292 8.48485 59.6292 7.46667 59.0236 6.86212C58.4179 6.24167 57.4239 6.24167 56.8338 6.86212L55.1876 8.54848C54.5819 9.16894 54.5819 10.1871 55.1876 10.7917C55.7933 11.3962 56.7872 11.4121 57.3774 10.7917L59.0236 9.1053ZM39.8126 28.7848C40.4183 28.1644 40.4183 27.1462 39.8126 26.5417C39.2069 25.9212 38.213 25.9212 37.6228 26.5417L35.9766 28.228C35.3709 28.8485 35.3709 29.8667 35.9766 30.4712C36.5823 31.0758 37.5762 31.0917 38.1664 30.4712L39.8126 28.7848Z" fill="white"/>
</g>
</g>
<defs>
<clipPath id="clip0_148:465">
<rect width="67" height="59" fill="white"/>
</clipPath>
</defs>
</svg>
