<svg width="62" height="58" viewBox="0 0 62 58" fill="none" xmlns="http://www.w3.org/2000/svg">
<g clip-path="url(#clip0_146:423)">
<path d="M12.75 5.875H10.1437L12.1687 3.85L11.2875 2.9625L8.375 5.875H7.125V4.625L10.0375 1.7125L9.15 0.83125L7.125 2.85625V0.25H5.875V2.85625L3.85 0.83125L2.9625 1.7125L5.875 4.625V5.875H4.625L1.7125 2.9625L0.83125 3.85L2.85625 5.875H0.25V7.125H2.85625L0.83125 9.15L1.7125 10.0375L4.625 7.125H5.875V8.375L2.9625 11.2875L3.85 12.1687L5.875 10.1437V12.75H7.125V10.1437L9.15 12.1687L10.0375 11.2875L7.125 8.375V7.125H8.375L11.2875 10.0375L12.1687 9.15L10.1437 7.125H12.75V5.875Z" fill="white"/>
<path d="M56.75 50.875H54.1437L56.1687 48.85L55.2875 47.9625L52.375 50.875H51.125V49.625L54.0375 46.7125L53.15 45.8313L51.125 47.8563V45.25H49.875V47.8563L47.85 45.8313L46.9625 46.7125L49.875 49.625V50.875H48.625L45.7125 47.9625L44.8313 48.85L46.8563 50.875H44.25V52.125H46.8563L44.8313 54.15L45.7125 55.0375L48.625 52.125H49.875V53.375L46.9625 56.2875L47.85 57.1687L49.875 55.1437V57.75H51.125V55.1437L53.15 57.1687L54.0375 56.2875L51.125 53.375V52.125H52.375L55.2875 55.0375L56.1687 54.15L54.1437 52.125H56.75V50.875Z" fill="white"/>
<path d="M61.4168 11.7083H58.1156L60.6806 9.14333L59.5643 8.01916L55.8752 11.7083H54.2918V10.125L57.981 6.43583L56.8568 5.31958L54.2918 7.88458V4.58333H52.7085V7.88458L50.1435 5.31958L49.0193 6.43583L52.7085 10.125V11.7083H51.1252L47.436 8.01916L46.3197 9.14333L48.8847 11.7083H45.5835V13.2917H48.8847L46.3197 15.8567L47.436 16.9808L51.1252 13.2917H52.7085V14.875L49.0193 18.5642L50.1435 19.6804L52.7085 17.1154V20.4167H54.2918V17.1154L56.8568 19.6804L57.981 18.5642L54.2918 14.875V13.2917H55.8752L59.5643 16.9808L60.6806 15.8567L58.1156 13.2917H61.4168V11.7083Z" fill="white"/>
<path d="M50.6668 27.3333H43.7168L49.1168 21.9333L46.7668 19.5667L39.0002 27.3333H35.6668V24L43.4335 16.2333L41.0668 13.8833L35.6668 19.2833V12.3333H32.3335V19.2833L26.9335 13.8833L24.5668 16.2333L32.3335 24V27.3333H29.0002L21.2335 19.5667L18.8835 21.9333L24.2835 27.3333H17.3335V30.6667H24.2835L18.8835 36.0667L21.2335 38.4333L29.0002 30.6667H32.3335V34L24.5668 41.7667L26.9335 44.1167L32.3335 38.7167V45.6667H35.6668V38.7167L41.0668 44.1167L43.4335 41.7667L35.6668 34V30.6667H39.0002L46.7668 38.4333L49.1168 36.0667L43.7168 30.6667H50.6668V27.3333Z" fill="white"/>
<path d="M15.5832 37.7917H12.6294L14.9244 35.4967L13.9257 34.4908L10.6248 37.7917H9.20817V36.375L12.509 33.0742L11.5032 32.0754L9.20817 34.3704V31.4167H7.7915V34.3704L5.4965 32.0754L4.49067 33.0742L7.7915 36.375V37.7917H6.37484L3.074 34.4908L2.07525 35.4967L4.37025 37.7917H1.4165V39.2083H4.37025L2.07525 41.5033L3.074 42.5092L6.37484 39.2083H7.7915V40.625L4.49067 43.9258L5.4965 44.9246L7.7915 42.6296V45.5833H9.20817V42.6296L11.5032 44.9246L12.509 43.9258L9.20817 40.625V39.2083H10.6248L13.9257 42.5092L14.9244 41.5033L12.6294 39.2083H15.5832V37.7917Z" fill="white"/>
</g>
<defs>
<clipPath id="clip0_146:423">
<rect width="62" height="58" fill="white"/>
</clipPath>
</defs>
</svg>
