<svg width="67" height="59" viewBox="0 0 67 59" fill="none" xmlns="http://www.w3.org/2000/svg">
<g clip-path="url(#clip0_116:349)">
<g clip-path="url(#clip1_116:349)">
<path d="M33.0276 5.49994C40.2051 5.49994 46.4751 10.6149 47.8776 17.6824L48.7026 21.8074L52.8826 22.1099C57.1726 22.4124 60.5276 25.9874 60.5276 30.2499C60.5276 34.7874 56.8151 38.4999 52.2776 38.4999H16.5276C10.4501 38.4999 5.52759 33.5774 5.52759 27.4999C5.52759 21.8624 9.73509 17.1599 15.3176 16.5824L18.2601 16.2799L19.6351 13.6674C22.2201 8.63494 27.3626 5.49994 33.0276 5.49994ZM33.0276 -6.10352e-05C25.0801 -6.10352e-05 18.1501 4.50994 14.7126 11.1099C6.46259 11.9899 0.0275879 19.0024 0.0275879 27.4999C0.0275879 36.6024 7.42509 43.9999 16.5276 43.9999H52.2776C59.8676 43.9999 66.0276 37.8399 66.0276 30.2499C66.0276 22.9899 60.3901 17.1049 53.2676 16.6099C51.3701 7.12244 43.0376 -6.10352e-05 33.0276 -6.10352e-05Z" fill="white"/>
</g>
<path d="M17 48L17 53.5" stroke="white" stroke-width="5" stroke-linecap="round"/>
<path d="M28 44L28 49.5" stroke="white" stroke-width="5" stroke-linecap="round"/>
<path d="M35 51L35 56.5" stroke="white" stroke-width="5" stroke-linecap="round"/>
<path d="M44 47L44 52.5" stroke="white" stroke-width="5" stroke-linecap="round"/>
<path d="M10 42L10 47.5" stroke="white" stroke-width="5" stroke-linecap="round"/>
<path d="M55 45L55 50.5" stroke="white" stroke-width="5" stroke-linecap="round"/>
</g>
<defs>
<clipPath id="clip0_116:349">
<rect width="67" height="59" fill="white"/>
</clipPath>
<clipPath id="clip1_116:349">
<rect width="66" height="66" fill="white" transform="translate(0 -11)"/>
</clipPath>
</defs>
</svg>
