<svg width="67" height="59" viewBox="0 0 67 59" fill="none" xmlns="http://www.w3.org/2000/svg">
<g clip-path="url(#clip0_116:362)">
<g clip-path="url(#clip1_116:362)">
<path d="M33.0273 5.49994C40.2048 5.49994 46.4748 10.6149 47.8773 17.6824L48.7023 21.8074L52.8823 22.1099C57.1723 22.4124 60.5273 25.9874 60.5273 30.2499C60.5273 34.7874 56.8148 38.4999 52.2773 38.4999H16.5273C10.4498 38.4999 5.52734 33.5774 5.52734 27.4999C5.52734 21.8624 9.73484 17.1599 15.3173 16.5824L18.2598 16.2799L19.6348 13.6674C22.2198 8.63494 27.3623 5.49994 33.0273 5.49994ZM33.0273 -6.10352e-05C25.0798 -6.10352e-05 18.1498 4.50994 14.7123 11.1099C6.46234 11.9899 0.0273438 19.0024 0.0273438 27.4999C0.0273438 36.6024 7.42484 43.9999 16.5273 43.9999H52.2773C59.8673 43.9999 66.0273 37.8399 66.0273 30.2499C66.0273 22.9899 60.3898 17.1049 53.2673 16.6099C51.3698 7.12244 43.0373 -6.10352e-05 33.0273 -6.10352e-05Z" fill="white"/>
</g>
<path d="M17 51L17 56.5" stroke="white" stroke-width="5" stroke-linecap="round"/>
<path d="M28 47L28 52.5" stroke="white" stroke-width="5" stroke-linecap="round"/>
<path d="M50 48L50 53.5" stroke="white" stroke-width="5" stroke-linecap="round"/>
</g>
<defs>
<clipPath id="clip0_116:362">
<rect width="67" height="59" fill="white"/>
</clipPath>
<clipPath id="clip1_116:362">
<rect width="66" height="66" fill="white" transform="translate(0 -11)"/>
</clipPath>
</defs>
</svg>
