<svg width="67" height="59" viewBox="0 0 67 59" fill="none" xmlns="http://www.w3.org/2000/svg">
<g clip-path="url(#clip0_145:349)">
<g clip-path="url(#clip1_145:349)">
<path d="M33.0276 5.49995C40.2051 5.49995 46.4751 10.615 47.8776 17.6825L48.7026 21.8075L52.8826 22.11C57.1726 22.4125 60.5276 25.9874 60.5276 30.2499C60.5276 34.7874 56.8151 38.4999 52.2776 38.4999H16.5276C10.4501 38.4999 5.52759 33.5774 5.52759 27.4999C5.52759 21.8625 9.73509 17.16 15.3176 16.5825L18.2601 16.28L19.6351 13.6675C22.2201 8.63495 27.3626 5.49995 33.0276 5.49995ZM33.0276 -4.57764e-05C25.0801 -4.57764e-05 18.1501 4.50995 14.7126 11.11C6.46259 11.99 0.0275879 19.0025 0.0275879 27.4999C0.0275879 36.6024 7.42509 43.9999 16.5276 43.9999H52.2776C59.8676 43.9999 66.0276 37.8399 66.0276 30.2499C66.0276 22.9899 60.3901 17.105 53.2676 16.61C51.3701 7.12245 43.0376 -4.57764e-05 33.0276 -4.57764e-05Z" fill="white"/>
</g>
<path d="M17 51L17 56.5" stroke="white" stroke-width="5" stroke-linecap="round"/>
<path d="M50 48L50 53.5" stroke="white" stroke-width="5" stroke-linecap="round"/>
<path d="M36.75 50.875H34.1437L36.1687 48.85L35.2875 47.9625L32.375 50.875H31.125V49.625L34.0375 46.7125L33.15 45.8313L31.125 47.8563V45.25H29.875V47.8563L27.85 45.8313L26.9625 46.7125L29.875 49.625V50.875H28.625L25.7125 47.9625L24.8313 48.85L26.8563 50.875H24.25V52.125H26.8563L24.8313 54.15L25.7125 55.0375L28.625 52.125H29.875V53.375L26.9625 56.2875L27.85 57.1687L29.875 55.1437V57.75H31.125V55.1437L33.15 57.1687L34.0375 56.2875L31.125 53.375V52.125H32.375L35.2875 55.0375L36.1687 54.15L34.1437 52.125H36.75V50.875Z" fill="white"/>
</g>
<defs>
<clipPath id="clip0_145:349">
<rect width="67" height="59" fill="white"/>
</clipPath>
<clipPath id="clip1_145:349">
<rect width="66" height="66" fill="white" transform="translate(0 -11)"/>
</clipPath>
</defs>
</svg>
